<svg width="39" height="16" viewBox="0 0 39 16" fill="none" xmlns="http://www.w3.org/2000/svg">
<path d="M8.50014 15.9999C8.4667 16.0005 8.43327 15.9985 8.40014 15.9939C8.23194 15.9684 8.07931 15.881 7.97214 15.7489L5.33016 12.7489H0.689182C0.502277 12.7445 0.324772 12.6661 0.195606 12.5309C0.0664398 12.3957 -0.00383925 12.2148 0.000186119 12.0279V0.721996C-0.00410799 0.53491 0.0660514 0.353772 0.195246 0.21839C0.324441 0.0830072 0.5021 0.00445682 0.689182 0H16.3111C16.4982 0.00445682 16.6758 0.0830072 16.805 0.21839C16.9342 0.353772 17.0044 0.53491 17.0001 0.721996V12.0289C17.0044 12.216 16.9342 12.3972 16.805 12.5325C16.6758 12.6679 16.4982 12.7465 16.3111 12.7509H11.6651L9.00713 15.7679C8.94394 15.8404 8.86605 15.8985 8.77863 15.9385C8.69121 15.9785 8.59627 15.9995 8.50014 15.9999ZM1.37818 11.3059H5.63715C5.73328 11.3065 5.82819 11.3274 5.9156 11.3674C6.00301 11.4074 6.08092 11.4655 6.14415 11.5379L8.50014 14.2149L10.8561 11.5389C10.9194 11.4665 10.9973 11.4084 11.0847 11.3684C11.1721 11.3284 11.267 11.3075 11.3631 11.3069H15.6221V1.44299H1.37818V11.3059Z" fill="#FFFEFE"/>
<path d="M5.5551 7.19796C5.9682 7.19796 6.30309 6.86352 6.30309 6.45096C6.30309 6.03841 5.9682 5.70397 5.5551 5.70397C5.14199 5.70397 4.8071 6.03841 4.8071 6.45096C4.8071 6.86352 5.14199 7.19796 5.5551 7.19796Z" fill="#FFFEFE"/>
<path d="M8.50015 7.19796C8.91326 7.19796 9.24814 6.86352 9.24814 6.45096C9.24814 6.03841 8.91326 5.70397 8.50015 5.70397C8.08704 5.70397 7.75215 6.03841 7.75215 6.45096C7.75215 6.86352 8.08704 7.19796 8.50015 7.19796Z" fill="#FFFEFE"/>
<path d="M11.4442 7.19796C11.8573 7.19796 12.1922 6.86352 12.1922 6.45096C12.1922 6.03841 11.8573 5.70397 11.4442 5.70397C11.0311 5.70397 10.6962 6.03841 10.6962 6.45096C10.6962 6.86352 11.0311 7.19796 11.4442 7.19796Z" fill="#FFFEFE"/>
<path d="M25.7201 6.94596H26.7881C26.8961 6.10596 27.5081 5.52997 28.5281 5.52997C29.5721 5.52997 30.1241 6.10596 30.1241 6.93396C30.1241 7.94195 29.3441 8.38595 27.8921 8.39795H27.6041V9.30995H27.8801C29.4401 9.30995 30.2921 9.77794 30.2921 11.0019C30.2921 11.8899 29.7401 12.5739 28.5761 12.5739C27.4241 12.5739 26.7521 11.8659 26.6441 10.9419H25.5881C25.7201 12.6219 26.9441 13.4979 28.5881 13.4979C30.4001 13.4979 31.3361 12.4419 31.3361 11.0979C31.3361 9.84994 30.6521 9.10595 29.6441 8.86595V8.80595C30.5561 8.60195 31.1801 7.82195 31.1801 6.82596C31.1801 5.57797 30.2561 4.59397 28.5641 4.59397C26.9561 4.59397 25.8281 5.45797 25.7201 6.94596ZM34.3945 8.92595C33.4225 9.21395 32.7865 10.0059 32.7865 11.0979C32.7865 12.6699 34.0225 13.6779 35.8464 13.6779C37.6824 13.6779 38.9304 12.6699 38.9304 11.0979C38.9304 10.0179 38.2944 9.22595 37.3104 8.92595C38.1624 8.58995 38.7024 7.86995 38.7024 6.93396C38.7024 5.67397 37.7304 4.62997 35.8464 4.62997C33.9625 4.62997 33.0025 5.66197 33.0025 6.93396C33.0025 7.90595 33.5065 8.57795 34.3945 8.92595ZM35.8464 8.56595C34.7905 8.56595 34.0585 7.97795 34.0585 7.07796C34.0585 6.05796 34.7785 5.54197 35.8464 5.54197C36.9384 5.54197 37.6464 6.06996 37.6464 7.06596C37.6464 7.96595 36.9144 8.56595 35.8464 8.56595ZM35.8464 9.40595C36.9864 9.40595 37.8504 9.94594 37.8504 11.0619C37.8504 12.0699 37.0824 12.7659 35.8464 12.7659C34.6105 12.7659 33.8305 12.0819 33.8305 11.0619C33.8305 9.90994 34.7305 9.40595 35.8464 9.40595Z" fill="#FFFEFE"/>
</svg>
